<?xml version="1.0" standalone="no"?>
<!DOCTYPE svg PUBLIC "-//W3C//DTD SVG 20010904//EN"
 "http://www.w3.org/TR/2001/REC-SVG-20010904/DTD/svg10.dtd">
<svg version="1.0" xmlns="http://www.w3.org/2000/svg"
 width="956.000000pt" height="956.000000pt" viewBox="0 0 956.000000 956.000000"
 preserveAspectRatio="xMidYMid meet">
<metadata>
Created by potrace 1.11, written by Peter Selinger 2001-2013
</metadata>
<g transform="translate(0.000000,956.000000) scale(0.100000,-0.100000)"
fill="#000000" stroke="none">
<path d="M2790 7709 c-150 -25 -241 -62 -353 -147 -119 -90 -230 -263 -262
-405 -44 -203 -8 -408 99 -570 53 -80 194 -217 223 -217 5 0 15 -6 22 -12 6
-7 15 -13 19 -14 4 0 29 -11 56 -23 94 -42 175 -57 286 -55 98 2 117 4 178 18
43 10 67 18 129 47 210 98 358 284 409 514 11 51 12 231 2 276 -43 184 -138
339 -273 445 -65 52 -198 116 -265 129 -12 2 -30 7 -41 10 -30 10 -179 12
-229 4z"/>
<path d="M2700 5828 c-25 -4 -56 -9 -70 -13 -14 -3 -34 -7 -45 -9 -11 -2 -33
-9 -50 -16 -16 -6 -31 -11 -33 -11 -7 3 -115 -57 -172 -94 -72 -48 -180 -148
-225 -210 -17 -22 -32 -42 -35 -45 -20 -17 -103 -175 -138 -263 -16 -37 -81
-297 -98 -387 -3 -14 -10 -43 -16 -65 -13 -47 -14 -50 -21 -90 -5 -29 -47
-210 -67 -290 -6 -22 -13 -51 -16 -65 -3 -13 -14 -60 -24 -105 -10 -45 -22
-94 -25 -110 -3 -17 -7 -34 -9 -40 -1 -5 -7 -28 -11 -50 -12 -55 -12 -54 -15
-60 -1 -3 -3 -8 -4 -12 -5 -21 -19 -90 -22 -108 -2 -11 -15 -65 -29 -120 -14
-55 -28 -116 -31 -135 -3 -19 -8 -38 -10 -41 -5 -8 -65 -279 -67 -301 -1 -17
-16 -26 -18 -10 -2 18 -8 49 -12 67 -3 11 -22 92 -42 179 -20 88 -38 162 -40
166 -4 7 -15 56 -20 95 -2 11 -4 20 -5 20 -1 0 -3 10 -6 22 -2 13 -15 71 -29
130 -72 302 -93 351 -189 448 -186 186 -458 188 -648 5 -119 -115 -186 -317
-157 -473 4 -23 9 -55 12 -72 3 -16 18 -86 35 -155 17 -69 34 -143 38 -165 10
-51 11 -54 14 -57 2 -3 5 -19 13 -60 3 -15 8 -32 11 -36 3 -5 8 -24 10 -43 2
-19 14 -74 26 -124 12 -49 23 -97 25 -105 2 -8 9 -37 15 -65 6 -27 13 -58 15
-68 2 -10 7 -28 11 -40 4 -12 8 -29 9 -37 2 -23 15 -68 40 -146 84 -256 273
-485 493 -594 34 -17 64 -30 67 -30 3 0 18 -6 33 -13 15 -8 45 -18 67 -22 22
-5 47 -10 55 -12 44 -11 142 -20 195 -16 335 19 615 212 787 543 25 47 45 90
46 95 1 6 12 39 24 75 12 36 23 67 23 70 1 7 18 84 20 90 1 3 7 32 14 65 7 33
15 67 18 75 3 8 7 24 8 35 2 11 12 58 24 105 11 47 22 96 24 110 3 14 12 52
20 85 9 33 18 71 21 85 3 14 8 36 11 50 4 14 8 34 10 45 2 11 4 20 5 20 1 0 3
7 5 15 2 8 6 26 9 40 3 14 7 34 10 45 26 114 58 254 61 268 2 10 6 26 9 35 3
9 7 28 10 42 2 14 12 57 21 95 9 39 18 77 20 85 2 8 15 67 30 130 14 63 30
129 35 145 5 17 11 46 14 65 6 43 33 150 39 156 2 2 10 -22 17 -53 8 -32 15
-62 16 -68 1 -5 10 -44 19 -85 9 -41 19 -84 21 -95 3 -11 7 -29 9 -40 5 -23
10 -44 24 -99 5 -22 8 -43 5 -47 -2 -4 0 -10 5 -13 4 -3 12 -25 16 -48 4 -24
9 -47 10 -53 2 -5 5 -21 8 -35 3 -14 13 -56 22 -95 9 -38 18 -77 20 -85 2 -8
10 -45 19 -81 8 -37 17 -78 20 -90 3 -13 7 -33 10 -44 3 -11 12 -51 21 -90 28
-121 55 -239 60 -260 6 -27 46 -203 49 -218 2 -7 6 -23 9 -37 18 -73 47 -201
51 -221 3 -13 5 -24 6 -24 1 0 4 -11 6 -25 3 -14 14 -50 25 -80 12 -30 22 -59
24 -65 5 -24 83 -173 95 -185 3 -3 23 -30 45 -60 37 -52 90 -107 167 -176 40
-35 150 -104 167 -104 6 0 11 -4 11 -10 0 -5 9 -10 19 -10 11 0 22 -4 25 -9 3
-5 16 -11 28 -14 13 -3 48 -13 78 -21 134 -39 269 -40 430 -2 8 2 30 7 48 11
17 4 32 11 32 15 0 3 6 7 13 7 31 0 196 95 244 142 12 11 27 21 33 21 5 0 10
3 10 8 0 4 20 27 45 52 103 103 239 337 260 446 2 11 4 19 5 19 1 0 3 7 5 15
2 8 18 74 35 145 32 131 34 141 47 205 10 48 10 50 13 53 1 1 4 11 6 22 1 11
5 29 7 40 3 11 11 43 17 70 6 28 14 58 16 68 2 9 6 26 9 38 2 11 6 28 9 37 3
9 7 28 10 42 2 14 11 54 19 90 74 307 69 288 82 358 4 23 12 45 16 48 5 3 7 9
5 13 -3 4 1 32 9 62 9 30 17 66 20 81 3 15 9 38 15 52 5 15 8 26 6 26 -2 0 4
32 14 70 10 39 16 70 13 70 -3 0 0 6 6 14 6 8 11 18 9 22 -4 16 66 284 75 284
4 0 7 -6 5 -12 -1 -7 4 -38 11 -68 7 -30 22 -93 33 -140 35 -153 47 -203 78
-340 16 -74 34 -151 39 -170 6 -19 21 -84 35 -145 14 -60 34 -148 45 -195 11
-47 23 -100 26 -119 3 -19 8 -37 10 -41 2 -3 6 -17 9 -31 3 -13 7 -33 10 -44
30 -131 68 -294 71 -310 14 -76 71 -301 90 -361 27 -84 104 -244 116 -244 5 0
9 -5 9 -10 0 -16 71 -109 131 -170 98 -101 239 -189 369 -230 87 -28 114 -32
240 -35 128 -4 202 9 314 51 63 24 182 87 196 103 3 3 22 19 44 35 54 40 154
143 185 191 14 22 32 46 39 53 18 20 112 214 112 232 0 9 4 20 9 26 8 8 62
213 74 284 3 14 10 45 17 70 7 25 14 56 16 70 3 14 7 33 10 42 3 9 7 25 9 35
2 10 15 68 30 128 14 61 35 153 46 205 11 52 23 102 26 110 3 8 7 20 9 27 1 6
7 35 14 65 6 29 14 64 16 78 3 14 11 50 19 80 14 54 42 180 51 230 3 14 9 39
14 55 5 17 12 48 16 70 3 22 8 43 10 46 2 3 6 21 9 40 3 19 10 50 15 69 5 19
12 51 15 70 3 19 10 49 15 65 5 17 12 46 15 65 3 19 9 44 12 55 5 17 7 16 15
-10 4 -16 11 -46 14 -65 3 -19 8 -42 11 -50 3 -8 7 -24 9 -35 1 -11 17 -81 34
-155 17 -74 33 -142 35 -150 5 -22 56 -242 61 -265 3 -11 9 -41 14 -67 48
-243 179 -401 375 -456 11 -3 58 -6 105 -8 125 -4 220 32 320 122 96 87 161
240 163 379 0 90 -3 111 -37 257 -35 149 -40 172 -41 183 -1 6 -5 21 -9 33 -4
13 -9 34 -11 45 -2 12 -6 33 -10 47 -3 14 -8 36 -11 50 -3 14 -10 43 -16 65
-5 22 -12 49 -14 60 -2 16 -22 105 -39 175 -2 8 -18 78 -35 155 -36 158 -84
294 -135 385 -19 34 -35 66 -35 70 0 5 -3 10 -7 12 -5 2 -26 28 -49 58 -221
296 -576 424 -929 336 -36 -9 -140 -48 -151 -57 -6 -5 -33 -21 -60 -35 -87
-47 -250 -195 -288 -263 -5 -9 -12 -18 -16 -21 -20 -16 -121 -206 -130 -245
-1 -5 -6 -17 -11 -26 -9 -18 -41 -137 -60 -224 -7 -33 -13 -62 -14 -65 -1 -3
-7 -32 -15 -65 -7 -33 -15 -64 -16 -70 -1 -5 -4 -21 -7 -35 -3 -14 -10 -45
-16 -70 -5 -25 -12 -56 -15 -70 -3 -14 -24 -108 -47 -210 -22 -102 -43 -198
-45 -213 -2 -16 -6 -33 -10 -38 -3 -5 -7 -19 -10 -32 -11 -58 -49 -227 -90
-392 -8 -33 -16 -70 -19 -82 -3 -13 -7 -33 -11 -45 -3 -13 -7 -32 -9 -43 -46
-205 -80 -344 -84 -339 -3 2 -6 10 -7 17 -1 7 -12 55 -24 107 -12 52 -24 109
-27 125 -3 17 -9 38 -14 48 -5 9 -8 17 -5 17 2 0 0 17 -5 38 -5 20 -12 48 -15
62 -3 14 -18 79 -34 145 -16 66 -31 132 -34 147 -3 16 -9 40 -12 55 -3 16 -19
84 -35 153 -17 69 -41 175 -55 235 -23 103 -50 221 -59 255 -13 56 -48 209
-51 225 -3 20 -4 26 -24 100 -6 22 -12 49 -14 60 -3 17 -19 82 -30 120 -52
190 -158 377 -283 498 -70 68 -158 132 -233 169 -36 17 -65 30 -65 28 0 -2
-11 3 -25 10 -57 30 -182 54 -290 54 -86 0 -193 -14 -206 -26 -3 -4 -12 -4
-19 -2 -7 3 -16 1 -20 -5 -3 -6 -14 -11 -24 -11 -9 0 -57 -20 -106 -45 -279
-142 -466 -393 -546 -732 -11 -49 -23 -97 -25 -108 -3 -11 -7 -29 -9 -40 -6
-24 -5 -22 -50 -210 -20 -82 -38 -161 -41 -175 -2 -14 -14 -63 -25 -110 -12
-47 -22 -92 -24 -100 -2 -8 -9 -37 -15 -65 -6 -27 -14 -59 -16 -70 -8 -39 -13
-60 -23 -92 -5 -18 -8 -33 -6 -33 2 0 -2 -18 -10 -40 -8 -22 -14 -43 -14 -45
0 -3 -2 -18 -5 -33 -4 -15 -8 -37 -11 -50 -2 -13 -6 -31 -9 -40 -3 -9 -7 -28
-10 -42 -2 -14 -13 -61 -24 -105 -12 -44 -23 -91 -26 -105 -2 -14 -9 -45 -15
-70 -7 -25 -14 -54 -16 -65 -5 -21 -18 -77 -20 -85 -1 -3 -10 -43 -20 -89
l-19 -83 -12 35 c-7 20 -15 49 -18 64 -3 15 -7 37 -10 48 -17 73 -28 123 -32
145 -3 14 -14 61 -26 105 -11 44 -22 89 -24 100 -2 11 -6 29 -8 41 -2 11 -16
70 -31 130 -15 60 -28 118 -30 129 -4 19 -32 142 -41 178 -2 9 -6 26 -8 37 -3
11 -22 91 -42 178 -20 86 -40 173 -45 192 -9 44 -9 41 -70 305 -28 121 -61
249 -72 285 -11 36 -21 67 -22 70 -13 45 -116 230 -145 261 -8 8 -28 33 -45
54 -16 22 -38 46 -48 55 -11 8 -34 30 -52 48 -71 70 -245 163 -352 189 -7 2
-19 5 -25 6 -76 21 -221 28 -298 15z"/>
</g>
</svg>
