<svg id="Layer_1" xmlns="http://www.w3.org/2000/svg" viewBox="0 0 238.7 153"><style>.st0{fill:currentColor}</style><path class="st0" d="M76.2 38.9c9.8-2.4 15.8-12.2 13.4-22C87.2 7.2 77.4 1.2 67.7 3.6 57.9 6 52 15.8 54.3 25.6c2.3 9.7 12.2 15.7 21.9 13.3M233.2 95.2l-5.4-23.6-.3-1.3c-2.4-10.5-9.8-18.2-18.9-19.9h-.2l-1.8-.3c-.7-.1-1.3-.1-2-.1h-.1c-10.7.1-20.1 8.5-22.8 20.5l-5 22.5-5.6 24.1-9.1-39.5c-.1-.3-.1-.7-.2-1l-1.6-6.7C157.5 58.2 148.1 50 137.5 50h-.1c-10.6.1-19.9 8.3-22.7 20l-1.5 6.5-9.5 40.6-.9-3.8-10-43.1C90.1 58.2 80.7 49.9 70 50c-10.7.1-20 8.4-22.8 20.2l-10 43.1v.1l-.8 3.6-5.2-22.3c-1.6-7.1-8.2-11.4-14.7-9.6-6.5 1.8-10.4 9-8.8 16.1l5.8 25.1c2.7 11.9 12.1 20.1 22.8 20.1h.1c10.7-.1 20-8.4 22.8-20.3l1.4-6.2L70 79.3l5.5 23.9 5.3 23.1c2.7 11.9 12.1 20.1 22.8 20.1h.1c10.7-.1 20-8.4 22.8-20.2l7-30.2 4-16.8.9 3.9 10 43.1c2.7 11.9 12.1 20.1 22.8 20.1h.1c10.7-.1 20-8.4 22.8-20.2l6.7-28.8 4-18 5.1 22.3c1.6 7.1 8.2 11.4 14.7 9.6 6.4-1.7 10.3-8.9 8.6-16"/></svg>
