<?xml version="1.0" encoding="utf-8"?>
<!-- Generator: Adobe Illustrator 19.0.0, SVG Export Plug-In . SVG Version: 6.00 Build 0)  -->
<svg version="1.1" id="Layer_1" xmlns="http://www.w3.org/2000/svg" xmlns:xlink="http://www.w3.org/1999/xlink"
	 viewBox="-217 376.4 175.7 41.6" style="enable-background:new -217 376.4 175.7 41.6;" xml:space="preserve">
<style type="text/css">
	.st0{fill:currentColor;}
</style>
<path class="st0" d="M-98.6,386.8c2.8-0.7,4.6-3.5,3.9-6.4c-0.7-2.8-3.5-4.6-6.4-3.9c-2.8,0.7-4.6,3.5-3.9,6.4
	C-104.3,385.7-101.4,387.5-98.6,386.8"/>
<path class="st0" d="M-40,386.8c2.8-0.7,4.6-3.5,3.9-6.4c-0.7-2.8-3.5-4.6-6.4-3.9c-2.8,0.7-4.6,3.5-3.9,6.4
	C-45.7,385.7-42.9,387.5-40,386.8"/>
<path class="st0" d="M-215.8,386.8c2.9-0.7,4.6-3.5,3.9-6.4c-0.7-2.8-3.5-4.5-6.3-3.9c-2.8,0.7-4.6,3.5-3.9,6.4
	C-221.4,385.7-218.6,387.5-215.8,386.8"/>
<path class="st0" d="M-157.2,386.8c2.8-0.7,4.6-3.5,3.9-6.4c-0.7-2.8-3.5-4.6-6.4-3.9c-2.8,0.7-4.6,3.5-3.9,6.4
	C-162.9,385.7-160,387.5-157.2,386.8"/>
<path class="st0" d="M5.5,403.1l-1.6-6.8l-0.1-0.4c-0.7-3-2.9-5.3-5.5-5.8c0,0,0,0-0.1,0c-0.2,0-0.3-0.1-0.5-0.1c-0.2,0-0.4,0-0.6,0
	c-3.1,0-5.8,2.5-6.6,5.9l-1.5,6.5l-1.6,7l-2.6-11.4c0-0.1,0-0.2-0.1-0.3l-0.5-1.9c-0.8-3.4-3.5-5.8-6.6-5.8c-3.1,0-5.8,2.4-6.6,5.8
	l-0.4,1.9l-2.7,11.8l-0.3-1.1l-2.9-12.5c-0.8-3.5-3.5-5.9-6.6-5.8c-3.1,0-5.8,2.4-6.6,5.9l-2.8,12.4l-0.2,1l-1.5-6.5
	c-0.1-0.4-0.2-0.7-0.4-1l-1.3-5.6l-0.1-0.4c-0.7-3-2.9-5.3-5.5-5.8c0,0,0,0-0.1,0c-0.2,0-0.3-0.1-0.5-0.1s-0.4,0-0.6,0
	c-3.1,0-5.8,2.5-6.6,5.9l-1.5,6.5l-1.6,7l-2.6-11.4c0-0.1,0-0.2-0.1-0.3l-0.5-1.9c-0.8-3.4-3.5-5.8-6.6-5.8c-3.1,0-5.8,2.4-6.6,5.8
	l-0.4,1.9l-2.7,11.8l-0.3-1.1l-2.9-12.5c-0.8-3.5-3.5-5.9-6.6-5.8c-3.1,0-5.8,2.4-6.6,5.9l-2.8,12.4l-0.2,1l-1.5-6.5
	c0-0.2-0.1-0.3-0.2-0.5l-1.4-6.1l-0.1-0.4c-0.7-3-2.9-5.3-5.5-5.8c0,0,0,0-0.1,0c-0.2,0-0.3-0.1-0.5-0.1c-0.2,0-0.4,0-0.6,0
	c-3.1,0-5.8,2.5-6.6,5.9l-1.4,6.6l-1.6,7l-2.6-11.4c0-0.1,0-0.2-0.1-0.3l-0.5-1.9c-0.8-3.4-3.5-5.8-6.6-5.8c-3.1,0-5.8,2.4-6.6,5.8
	l-0.4,1.9l-2.7,11.8l-0.4-1.2l-2.9-12.5c-0.8-3.5-3.5-5.9-6.6-5.8c-3.1,0-5.8,2.4-6.6,5.9l-2.9,12.4l-0.2,1l-1.5-6.5
	c0-0.2-0.1-0.3-0.2-0.5l-1.4-6.1l-0.1-0.4c-0.7-3-2.9-5.3-5.5-5.8c0,0,0,0-0.1,0c-0.2,0-0.3-0.1-0.5-0.1s-0.4,0-0.6,0
	c-3.1,0-5.8,2.5-6.6,5.9l-1.5,6.5l-1.6,7l-2.6-11.4c0-0.1,0-0.2-0.1-0.3l-0.5-1.9c-0.8-3.4-3.5-5.8-6.6-5.8c-3.1,0-5.8,2.4-6.6,5.8
	l-0.3,1.9l-2.8,11.8l-0.2-1.1l-2.9-12.5c-0.8-3.5-3.5-5.9-6.6-5.8c-3.1,0-5.8,2.4-6.6,5.9l-3,12.4l-0.2,1l-1.5-6.5
	c-0.5-2.1-2.4-3.3-4.3-2.8c-1.9,0.5-3,2.6-2.5,4.7l1.7,7.3c0.8,3.4,3.5,5.8,6.6,5.8s5.8-2.4,6.6-5.9l0.4-1.8l2.7-11.8l1.6,7.1
	l1.6,6.7c0.8,3.4,3.5,5.8,6.6,5.8c3.1,0,5.8-2.4,6.6-5.9l2-8.7l1.2-4.9l0.3,1.1l2.9,12.5c0.8,3.4,3.5,5.8,6.6,5.8
	c3.1,0,5.8-2.4,6.6-5.9l1.9-8.3l1.2-5.2l1.5,6.5c0,0.2,0.1,0.3,0.2,0.4l1.5,6.7c0.8,3.4,3.5,5.8,6.6,5.8c3.1,0,5.8-2.4,6.6-5.9
	l0.4-1.8l2.7-11.7l1.6,6.9l1.6,6.7c0.8,3.4,3.5,5.8,6.6,5.8c3.1,0,5.8-2.4,6.6-5.9l2-8.7l1.2-4.9l0.3,1.1l2.9,12.5
	c0.8,3.4,3.5,5.8,6.6,5.8c3.1,0,5.8-2.4,6.6-5.9l1.9-8.3l1.2-5.2l1.5,6.5c0,0.1,0.1,0.1,0.1,0.2l1.6,7c0.8,3.4,3.5,5.8,6.6,5.8
	c3.1,0,5.8-2.4,6.6-5.9l0.4-1.8l2.7-11.8l1.6,6.9l1.6,6.7c0.8,3.4,3.5,5.8,6.6,5.8c3.1,0,5.8-2.4,6.6-5.9l2-8.7l1.2-4.9l0.3,1.1
	l2.9,12.5c0.8,3.4,3.5,5.8,6.6,5.8c3.1,0,5.8-2.4,6.6-5.9l1.9-8.3l1.2-5.2l1.5,6.5l1.7,7.3c0.8,3.4,3.5,5.8,6.6,5.8
	c3.1,0,5.8-2.4,6.6-5.9l0.4-1.8l2.7-11.8l1.6,6.9l1.6,6.7c0.8,3.4,3.5,5.8,6.6,5.8c3.1,0,5.8-2.4,6.6-5.9l2-8.7l1.2-4.9l0.3,1.1
	l2.9,12.5c0.8,3.4,3.5,5.8,6.6,5.8c3.1,0,5.8-2.4,6.6-5.9l1.9-8.3l1.2-5.2l1.5,6.5c0.5,2.1,2.4,3.3,4.3,2.8
	C4.9,407.3,6,405.2,5.5,403.1z"/>
</svg>
