<svg id="Layer_1" xmlns="http://www.w3.org/2000/svg" viewBox="0 0 175.7 41.6"><style>.st0{fill:#f1e1d3}</style><path class="st0" d="M118.4 10.4c2.8-.7 4.6-3.5 3.9-6.4-.7-2.8-3.5-4.6-6.4-3.9-2.8.7-4.6 3.5-3.9 6.4.7 2.8 3.6 4.6 6.4 3.9M177 10.4c2.8-.7 4.6-3.5 3.9-6.4-.7-2.8-3.5-4.6-6.4-3.9-2.8.7-4.6 3.5-3.9 6.4.7 2.8 3.5 4.6 6.4 3.9M163.9 26.7l-1.6-6.8-.1-.4c-.7-3-2.9-5.3-5.5-5.8h-.1c-.2 0-.3-.1-.5-.1h-.6c-3.1 0-5.8 2.5-6.6 5.9l-1.5 6.5-1.6 7-2.6-11.4c0-.1 0-.2-.1-.3l-.5-1.9c-.8-3.4-3.5-5.8-6.6-5.8-3.1 0-5.8 2.4-6.6 5.8l-.4 1.9-2.7 11.8-.3-1.1-2.9-12.5c-.8-3.5-3.5-5.9-6.6-5.8-3.1 0-5.8 2.4-6.6 5.9L107.1 32l-.2 1-1.5-6.5c-.5-2.1-2.4-3.3-4.3-2.8s-3 2.6-2.5 4.7l1.7 7.3c.8 3.4 3.5 5.8 6.6 5.8 3.1 0 5.8-2.4 6.6-5.9l.4-1.8 2.7-11.8 1.6 6.9 1.6 6.7c.8 3.4 3.5 5.8 6.6 5.8 3.1 0 5.8-2.4 6.6-5.9l2-8.7 1.2-4.9.3 1.1 2.9 12.5c.8 3.4 3.5 5.8 6.6 5.8 3.1 0 5.8-2.4 6.6-5.9l1.9-8.3 1.2-5.2 1.5 6.5c.5 2.1 2.4 3.3 4.3 2.8 1.8-.3 2.9-2.4 2.4-4.5"/><path class="st0" d="M222.5 26.7l-1.6-6.8-.1-.4c-.7-3-2.9-5.3-5.5-5.8h-.1c-.2 0-.3-.1-.5-.1h-.6c-3.1 0-5.8 2.5-6.6 5.9L206 26l-1.6 7-2.6-11.4c0-.1 0-.2-.1-.3l-.5-1.9c-.8-3.4-3.5-5.8-6.6-5.8-3.1 0-5.8 2.4-6.6 5.8l-.4 1.9-2.7 11.8-.3-1.1-2.9-12.5c-.8-3.5-3.5-5.9-6.6-5.8-3.1 0-5.8 2.4-6.6 5.9L165.7 32l-.2 1-1.5-6.5c-.5-2.1-2.4-3.3-4.3-2.8s-3 2.6-2.5 4.7l1.7 7.3c.8 3.4 3.5 5.8 6.6 5.8 3.1 0 5.8-2.4 6.6-5.9l.4-1.8 2.7-11.8 1.6 6.9 1.6 6.7c.8 3.4 3.5 5.8 6.6 5.8 3.1 0 5.8-2.4 6.6-5.9l2-8.7 1.2-4.9.3 1.1 2.9 12.5c.8 3.4 3.5 5.8 6.6 5.8 3.1 0 5.8-2.4 6.6-5.9l1.9-8.3 1.2-5.2 1.5 6.5c.5 2.1 2.4 3.3 4.3 2.8 1.8-.3 2.9-2.4 2.4-4.5M1.2 10.4C4.1 9.7 5.8 6.9 5.1 4 4.4 1.2 1.6-.5-1.2.1-4 .8-5.8 3.6-5.1 6.5c.7 2.8 3.5 4.6 6.3 3.9M59.8 10.4c2.8-.7 4.6-3.5 3.9-6.4C63 1.2 60.2-.6 57.3.1c-2.8.7-4.6 3.5-3.9 6.4.7 2.8 3.6 4.6 6.4 3.9M46.8 26.7l-1.6-6.8-.1-.4c-.7-3-2.9-5.3-5.5-5.8h-.1c-.2 0-.3-.1-.5-.1h-.6c-3.1 0-5.8 2.5-6.6 5.9L30.3 26l-1.6 7-2.6-11.4c0-.1 0-.2-.1-.3l-.5-1.9c-.8-3.4-3.5-5.8-6.6-5.8-3.1 0-5.8 2.4-6.6 5.8l-.3 1.9-2.8 11.8L9 32 6.1 19.5c-.8-3.5-3.5-5.9-6.6-5.8-3.1 0-5.8 2.4-6.6 5.9l-3 12.4-.2 1-1.5-6.5c-.5-2.1-2.4-3.3-4.3-2.8s-3 2.6-2.5 4.7l1.7 7.3c.8 3.4 3.5 5.8 6.6 5.8 3.1 0 5.8-2.4 6.6-5.9l.4-1.8L-.6 22 1 29.1l1.6 6.7c.8 3.4 3.5 5.8 6.6 5.8 3.1 0 5.8-2.4 6.6-5.9l2-8.7 1.2-4.9.3 1.1 2.9 12.5c.8 3.4 3.5 5.8 6.6 5.8 3.1 0 5.8-2.4 6.6-5.9l1.9-8.3 1.2-5.2 1.5 6.5c.5 2.1 2.4 3.3 4.3 2.8 1.8-.5 3-2.6 2.5-4.7"/><path class="st0" d="M105.4 26.7l-1.6-6.8-.1-.4c-.7-3-2.9-5.3-5.5-5.8h-.1c-.2 0-.3-.1-.5-.1H97c-3.1 0-5.8 2.5-6.6 5.9L89 26.1l-1.6 7-2.6-11.4c0-.1 0-.2-.1-.3l-.5-1.9c-.8-3.4-3.5-5.8-6.6-5.8-3.1 0-5.8 2.4-6.6 5.8l-.4 1.9-2.7 11.8-.4-1.2-2.9-12.5c-.8-3.5-3.5-5.9-6.6-5.8-3.1 0-5.8 2.4-6.6 5.9L48.5 32l-.2 1-1.5-6.5c-.5-2.1-2.4-3.3-4.3-2.8s-3 2.6-2.5 4.7l1.7 7.3c.8 3.4 3.5 5.8 6.6 5.8 3.1 0 5.8-2.4 6.6-5.9l.4-1.8L58 22.1l1.6 6.9 1.6 6.7c.8 3.4 3.5 5.8 6.6 5.8 3.1 0 5.8-2.4 6.6-5.9l2-8.7 1.2-4.9.3 1.1 2.9 12.5c.8 3.4 3.5 5.8 6.6 5.8 3.1 0 5.8-2.4 6.6-5.9l1.9-8.3 1.2-5.2 1.5 6.5c.5 2.1 2.4 3.3 4.3 2.8 1.8-.4 2.9-2.5 2.5-4.6"/></svg>
